#Comment line ignore any data following # character 
#Hierarchical Translation and Rotation (.htr) file 
[Header]	
#Header keywords are followed by a single value 
FileType HTR		#Single word string
DataType HTRS		#Translation followed by rotation and scale data
FileVersion 1		#integer
NumSegments 84		#integer
NumFrames 2		#integer
DataFrameRate 30		#integer, data frame rate in this file
EulerRotationOrder ZYX
CalibrationUnits mm
RotationUnits Degrees
GlobalAxisofGravity Y
BoneLengthAxis Y
ScaleFactor 1.00
[SegmentNames&Hierarchy]
#CHILD	PARENT
MASTER GLOBAL
root MASTER
chest root
L_mid_tent01 root
R_mid_tent01 root
spine01 root
Bip01_Neck chest
L_humerus chest
R_humerus chest
weapon_bone chest
Bip01_Head Bip01_Neck
eye_left_bone Bip01_Head
eye_right_bone Bip01_Head
L_forearm L_humerus
L_front_hand L_forearm
L_weapon_bone L_forearm
L_front_hand01_01 L_front_hand
L_front_hand02_01 L_front_hand
L_front_hand03_01 L_front_hand
L_front_hand01_02 L_front_hand01_01
L_front_hand02_02 L_front_hand02_01
L_front_hand03_02 L_front_hand03_01
R_forearm R_humerus
R_front_hand R_forearm
R_weapon_bone R_forearm
R_front_hand01_01 R_front_hand
R_front_hand02_01 R_front_hand
R_front_hand03_01 R_front_hand
R_front_hand01_02 R_front_hand01_01
R_front_hand02_02 R_front_hand02_01
R_front_hand03_02 R_front_hand03_01
null_rope01_connect L_mid_tent01
Rope1_Seg01 null_rope01_connect
Rope1_Seg02 Rope1_Seg01
Rope1_Seg03 Rope1_Seg02
Rope1_Seg04 Rope1_Seg03
Rope1_Seg05 Rope1_Seg04
Rope1_Seg06 Rope1_Seg05
Rope1_Seg07 Rope1_Seg06
Rope1_Seg09 Rope1_Seg07
L_mid_hand01 Rope1_Seg09
L_mid_hand02 Rope1_Seg09
L_mid_hand03 Rope1_Seg09
null_rope02_connect R_mid_tent01
Rope2_Seg01 null_rope02_connect
Rope2_Seg02 Rope2_Seg01
Rope2_Seg03 Rope2_Seg02
Rope2_Seg04 Rope2_Seg03
Rope2_Seg05 Rope2_Seg04
Rope2_Seg06 Rope2_Seg05
Rope2_Seg07 Rope2_Seg06
Rope2_Seg09 Rope2_Seg07
R_mid_hand01 Rope2_Seg09
R_mid_hand02 Rope2_Seg09
R_mid_hand03 Rope2_Seg09
spine02 spine01
spine03 spine02
pelvis spine03
null_rope03_connect pelvis
null_rope04_connect pelvis
Rope3_Seg01 null_rope03_connect
Rope3_Seg02 Rope3_Seg01
Rope3_Seg03 Rope3_Seg02
Rope3_Seg04 Rope3_Seg03
Rope3_Seg05 Rope3_Seg04
Rope3_Seg06 Rope3_Seg05
Rope3_Seg07 Rope3_Seg06
Rope3_Seg08 Rope3_Seg07
Rope3_Seg09 Rope3_Seg08
R_rear_hand01 Rope3_Seg09
R_rear_hand02 Rope3_Seg09
R_rear_hand03 Rope3_Seg09
Rope4_Seg01 null_rope04_connect
Rope4_Seg02 Rope4_Seg01
Rope4_Seg03 Rope4_Seg02
Rope4_Seg04 Rope4_Seg03
Rope4_Seg05 Rope4_Seg04
Rope4_Seg06 Rope4_Seg05
Rope4_Seg07 Rope4_Seg06
Rope4_Seg08 Rope4_Seg07
Rope4_Seg09 Rope4_Seg08
L_rear_hand01 Rope4_Seg09
L_rear_hand02 Rope4_Seg09
L_rear_hand03 Rope4_Seg09
[BasePosition]
#SegmentName Tx, Ty, Tz, Rx, Ry, Rz, BoneLength
MASTER 0.000000 0.000000 0.000000 -90.000000 0.000000 0.000000 10.000000 
root 0.000000 0.000000 0.000000 0.000000 0.000000 0.000000 10.000000 
chest 0.000000 0.000000 0.000000 0.000000 0.000000 0.000000 10.000000 
L_mid_tent01 0.000000 0.000000 0.000000 0.000000 0.000000 0.000000 10.000000 
R_mid_tent01 0.000000 0.000000 0.000000 0.000000 0.000000 0.000000 10.000000 
spine01 0.000000 0.000000 0.000000 0.000000 0.000000 0.000000 10.000000 
Bip01_Neck 0.000000 0.000000 0.000000 0.000000 0.000000 0.000000 10.000000 
L_humerus 0.000000 0.000000 0.000000 0.000000 0.000000 0.000000 10.000000 
R_humerus 0.000000 0.000000 0.000000 0.000000 0.000000 0.000000 10.000000 
weapon_bone 0.000000 0.000000 0.000000 0.000000 0.000000 0.000000 10.000000 
Bip01_Head 0.000000 0.000000 0.000000 0.000000 0.000000 0.000000 10.000000 
eye_left_bone 0.000000 0.000000 0.000000 0.000000 0.000000 0.000000 10.000000 
eye_right_bone 0.000000 0.000000 0.000000 0.000000 0.000000 0.000000 10.000000 
L_forearm 0.000000 0.000000 0.000000 0.000000 0.000000 0.000000 10.000000 
L_front_hand 0.000000 0.000000 0.000000 0.000000 0.000000 0.000000 10.000000 
L_weapon_bone 0.000000 0.000000 0.000000 0.000000 0.000000 0.000000 10.000000 
L_front_hand01_01 0.000000 0.000000 0.000000 0.000000 0.000000 0.000000 10.000000 
L_front_hand02_01 0.000000 0.000000 0.000000 0.000000 0.000000 0.000000 10.000000 
L_front_hand03_01 0.000000 0.000000 0.000000 0.000000 0.000000 0.000000 10.000000 
L_front_hand01_02 0.000000 0.000000 0.000000 0.000000 0.000000 0.000000 10.000000 
L_front_hand02_02 0.000000 0.000000 0.000000 0.000000 0.000000 0.000000 10.000000 
L_front_hand03_02 0.000000 0.000000 0.000000 0.000000 0.000000 0.000000 10.000000 
R_forearm 0.000000 0.000000 0.000000 0.000000 0.000000 0.000000 10.000000 
R_front_hand 0.000000 0.000000 0.000000 0.000000 0.000000 0.000000 10.000000 
R_weapon_bone 0.000000 0.000000 0.000000 0.000000 0.000000 0.000000 10.000000 
R_front_hand01_01 0.000000 0.000000 0.000000 0.000000 0.000000 0.000000 10.000000 
R_front_hand02_01 0.000000 0.000000 0.000000 0.000000 0.000000 0.000000 10.000000 
R_front_hand03_01 0.000000 0.000000 0.000000 0.000000 0.000000 0.000000 10.000000 
R_front_hand01_02 0.000000 0.000000 0.000000 0.000000 0.000000 0.000000 10.000000 
R_front_hand02_02 0.000000 0.000000 0.000000 0.000000 0.000000 0.000000 10.000000 
R_front_hand03_02 0.000000 0.000000 0.000000 0.000000 0.000000 0.000000 10.000000 
null_rope01_connect 0.000000 0.000000 0.000000 0.000000 0.000000 0.000000 10.000000 
Rope1_Seg01 0.000000 0.000000 0.000000 0.000000 0.000000 0.000000 10.000000 
Rope1_Seg02 0.000000 0.000000 0.000000 0.000000 0.000000 0.000000 10.000000 
Rope1_Seg03 0.000000 0.000000 0.000000 0.000000 0.000000 0.000000 10.000000 
Rope1_Seg04 0.000000 0.000000 0.000000 0.000000 0.000000 0.000000 10.000000 
Rope1_Seg05 0.000000 0.000000 0.000000 0.000000 0.000000 0.000000 10.000000 
Rope1_Seg06 0.000000 0.000000 0.000000 0.000000 0.000000 0.000000 10.000000 
Rope1_Seg07 0.000000 0.000000 0.000000 0.000000 0.000000 0.000000 10.000000 
Rope1_Seg09 0.000000 0.000000 0.000000 0.000000 0.000000 0.000000 10.000000 
L_mid_hand01 0.000000 0.000000 0.000000 0.000000 0.000000 0.000000 10.000000 
L_mid_hand02 0.000000 0.000000 0.000000 0.000000 0.000000 0.000000 10.000000 
L_mid_hand03 0.000000 0.000000 0.000000 0.000000 0.000000 0.000000 10.000000 
null_rope02_connect 0.000000 0.000000 0.000000 0.000000 0.000000 0.000000 10.000000 
Rope2_Seg01 0.000000 0.000000 0.000000 0.000000 0.000000 0.000000 10.000000 
Rope2_Seg02 0.000000 0.000000 0.000000 0.000000 0.000000 0.000000 10.000000 
Rope2_Seg03 0.000000 0.000000 0.000000 0.000000 0.000000 0.000000 10.000000 
Rope2_Seg04 0.000000 0.000000 0.000000 0.000000 0.000000 0.000000 10.000000 
Rope2_Seg05 0.000000 0.000000 0.000000 0.000000 0.000000 0.000000 10.000000 
Rope2_Seg06 0.000000 0.000000 0.000000 0.000000 0.000000 0.000000 10.000000 
Rope2_Seg07 0.000000 0.000000 0.000000 0.000000 0.000000 0.000000 10.000000 
Rope2_Seg09 0.000000 0.000000 0.000000 0.000000 0.000000 0.000000 10.000000 
R_mid_hand01 0.000000 0.000000 0.000000 0.000000 0.000000 0.000000 10.000000 
R_mid_hand02 0.000000 0.000000 0.000000 0.000000 0.000000 0.000000 10.000000 
R_mid_hand03 0.000000 0.000000 0.000000 0.000000 0.000000 0.000000 10.000000 
spine02 0.000000 0.000000 0.000000 0.000000 0.000000 0.000000 10.000000 
spine03 0.000000 0.000000 0.000000 0.000000 0.000000 0.000000 10.000000 
pelvis 0.000000 0.000000 0.000000 0.000000 0.000000 0.000000 10.000000 
null_rope03_connect 0.000000 0.000000 0.000000 0.000000 0.000000 0.000000 10.000000 
null_rope04_connect 0.000000 0.000000 0.000000 0.000000 0.000000 0.000000 10.000000 
Rope3_Seg01 0.000000 0.000000 0.000000 0.000000 0.000000 0.000000 10.000000 
Rope3_Seg02 0.000000 0.000000 0.000000 0.000000 0.000000 0.000000 10.000000 
Rope3_Seg03 0.000000 0.000000 0.000000 0.000000 0.000000 0.000000 10.000000 
Rope3_Seg04 0.000000 0.000000 0.000000 0.000000 0.000000 0.000000 10.000000 
Rope3_Seg05 0.000000 0.000000 0.000000 0.000000 0.000000 0.000000 10.000000 
Rope3_Seg06 0.000000 0.000000 0.000000 0.000000 0.000000 0.000000 10.000000 
Rope3_Seg07 0.000000 0.000000 0.000000 0.000000 0.000000 0.000000 10.000000 
Rope3_Seg08 0.000000 0.000000 0.000000 0.000000 0.000000 0.000000 10.000000 
Rope3_Seg09 0.000000 0.000000 0.000000 0.000000 0.000000 0.000000 10.000000 
R_rear_hand01 0.000000 0.000000 0.000000 0.000000 0.000000 0.000000 10.000000 
R_rear_hand02 0.000000 0.000000 0.000000 0.000000 0.000000 0.000000 10.000000 
R_rear_hand03 0.000000 0.000000 0.000000 0.000000 0.000000 0.000000 10.000000 
Rope4_Seg01 0.000000 0.000000 0.000000 0.000000 0.000000 0.000000 10.000000 
Rope4_Seg02 0.000000 0.000000 0.000000 0.000000 0.000000 0.000000 10.000000 
Rope4_Seg03 0.000000 0.000000 0.000000 0.000000 0.000000 0.000000 10.000000 
Rope4_Seg04 0.000000 0.000000 0.000000 0.000000 0.000000 0.000000 10.000000 
Rope4_Seg05 0.000000 0.000000 0.000000 0.000000 0.000000 0.000000 10.000000 
Rope4_Seg06 0.000000 0.000000 0.000000 0.000000 0.000000 0.000000 10.000000 
Rope4_Seg07 0.000000 0.000000 0.000000 0.000000 0.000000 0.000000 10.000000 
Rope4_Seg08 0.000000 0.000000 0.000000 0.000000 0.000000 0.000000 10.000000 
Rope4_Seg09 0.000000 0.000000 0.000000 0.000000 0.000000 0.000000 10.000000 
L_rear_hand01 0.000000 0.000000 0.000000 0.000000 0.000000 0.000000 10.000000 
L_rear_hand02 0.000000 0.000000 0.000000 0.000000 0.000000 0.000000 10.000000 
L_rear_hand03 0.000000 0.000000 0.000000 0.000000 0.000000 0.000000 10.000000 
#Beginning of Data. Separated by tabs
#Fr	Tx	Ty	Tz	Rx	Ry	Rz	SF
[MASTER]
1 0.000000 0.000000 0.000000 0.001660 0.001660 0.001660 0.000000
2 0.000000 0.000000 0.000000 0.001660 0.001660 0.001660 0.000000
[root]
1 -31.084423 -63.726768 1557.988037 -108.665810 23.358694 -90.552589 1559.600586
2 -30.873610 -63.930527 1556.480469 -108.657578 23.347454 -90.547417 1558.098877
[chest]
1 -86.836624 -33.005978 -30.127256 -2.145468 -9.217001 -178.910614 97.660866
2 -86.836624 -33.005978 -30.127256 -1.640236 -9.000096 -179.435959 97.660866
[L_mid_tent01]
1 27.299536 22.177580 -249.918289 -9.410888 5.741342 67.788513 252.381180
2 27.299534 22.177580 -249.918289 -9.389498 6.520872 67.764656 252.381180
[R_mid_tent01]
1 23.228794 24.509907 226.238495 -176.153931 -9.478125 66.079475 228.744751
2 23.228794 24.509907 226.238495 -176.147125 -9.817559 66.056633 228.744751
[spine01]
1 -0.361383 -0.195265 0.000000 -0.000001 -0.000007 22.052340 0.410763
2 -0.361383 -0.195265 0.000000 -0.000001 -0.000007 22.052340 0.410763
[Bip01_Neck]
1 165.484543 71.581718 0.000119 175.896118 1.177290 24.871183 180.302734
2 165.484543 71.581718 0.000119 175.896118 1.177290 24.871183 180.302734
[L_humerus]
1 -13.983130 -135.272980 -120.471481 -168.517593 36.033752 -113.483025 181.680161
2 -13.983130 -135.272980 -120.471481 -168.517578 36.033756 -113.483025 181.680161
[R_humerus]
1 -13.983309 -135.273102 125.287651 -179.581497 -30.913748 -122.051315 184.909012
2 -13.983309 -135.273102 125.287651 -178.255600 -29.147272 -119.639740 184.909012
[weapon_bone]
1 235.964890 -300.705902 0.000000 0.000000 -89.951546 -128.212341 382.234833
2 235.964890 -300.705902 0.000000 0.000000 -89.951546 -128.212341 382.234833
[Bip01_Head]
1 189.519958 179.130234 22.124863 -20.521486 5.310019 13.360887 261.715424
2 189.519958 179.130234 22.124865 -20.541090 5.314140 13.369807 261.715424
[eye_left_bone]
1 -24.626970 125.451866 -64.772606 0.000000 -90.000000 -99.840431 143.318359
2 -24.626970 125.451866 -64.772606 0.000000 -90.000000 -99.840431 143.318359
[eye_right_bone]
1 -24.626970 125.451866 64.327362 0.000000 -89.965736 80.156380 143.117676
2 -24.626970 125.451866 64.327362 0.000000 -89.965736 80.156380 143.117676
[L_forearm]
1 322.776093 0.000000 -0.000119 0.000017 0.002347 -89.149834 322.776093
2 322.776093 0.000000 -0.000119 0.000017 0.002347 -89.149826 322.776093
[L_front_hand]
1 241.149185 -0.042021 -3.300071 -179.659958 -2.242151 -0.019832 241.171753
2 241.149185 -0.042021 -3.300071 106.587608 -4.073256 -2.497787 241.171753
[L_weapon_bone]
1 156.183838 0.000000 0.000000 0.000014 0.000007 0.000001 156.183838
2 156.183838 0.000000 0.000000 0.000014 0.000007 0.000001 156.183838
[L_front_hand01_01]
1 86.095154 20.947098 -0.655860 -0.366594 -0.477154 75.385574 88.609184
2 86.095154 20.947098 -0.655860 -0.366594 -0.477154 75.385574 88.609184
[L_front_hand02_01]
1 86.935165 -11.437475 24.513514 154.399796 -59.883835 -61.369587 91.046425
2 86.935165 -11.437475 24.513514 154.399796 -59.883835 -61.369587 91.046425
[L_front_hand03_01]
1 86.637497 -14.123976 -20.424902 -153.913849 58.118122 -62.702866 90.126129
2 86.637497 -14.123976 -20.424902 -153.913849 58.118122 -62.702866 90.126129
[L_front_hand01_02]
1 71.020905 -0.000179 0.000030 0.000334 -0.002323 -106.379684 71.020905
2 71.020905 -0.000179 0.000030 0.000334 -0.002323 -106.379684 71.020905
[L_front_hand02_02]
1 71.020927 -0.000119 0.000060 0.000334 -0.002323 -106.379684 71.020927
2 71.020927 -0.000119 0.000060 0.000334 -0.002323 -106.379684 71.020927
[L_front_hand03_02]
1 71.020905 -0.000060 0.000060 0.000334 -0.002323 -106.379684 71.020905
2 71.020905 -0.000060 0.000060 0.000334 -0.002323 -106.379684 71.020905
[R_forearm]
1 322.776428 -0.000060 0.000030 0.213197 0.007525 -93.425262 322.776428
2 322.776428 -0.000060 0.000030 0.213197 0.007525 -93.425262 322.776428
[R_front_hand]
1 238.847015 -0.006795 2.210259 -0.270529 1.703932 2.322530 238.857239
2 238.847015 -0.006795 2.210259 -0.270529 1.703932 2.322531 238.857239
[R_weapon_bone]
1 155.664093 0.002503 -0.000030 0.003487 0.001180 -90.988930 155.664078
2 155.664093 0.002503 -0.000030 0.003487 0.001180 -90.988930 155.664078
[R_front_hand01_01]
1 87.624611 14.231146 22.918642 -154.633499 -59.950619 61.746044 91.683487
2 87.624611 14.231146 22.918642 -154.633484 -59.950607 61.746037 91.683487
[R_front_hand02_01]
1 89.356956 14.367283 -19.491137 154.602661 58.302849 63.744389 92.579636
2 89.356956 14.367283 -19.491137 154.602676 58.302864 63.744400 92.579636
[R_front_hand03_01]
1 87.286232 -22.307278 -0.143439 0.162155 -0.423168 -75.767921 90.091743
2 87.286232 -22.307278 -0.143439 0.162155 -0.423168 -75.767921 90.091743
[R_front_hand01_02]
1 71.020905 0.000060 0.000119 0.002323 -0.000334 106.381714 71.020905
2 71.020905 0.000060 0.000119 0.002323 -0.000334 106.381714 71.020905
[R_front_hand02_02]
1 71.020844 -0.000030 -0.000119 0.002323 -0.000334 106.381714 71.020836
2 71.020844 -0.000030 -0.000119 0.002323 -0.000334 106.381714 71.020836
[R_front_hand03_02]
1 71.020905 0.000000 0.000030 0.002323 -0.000334 106.381714 71.020905
2 71.020905 0.000000 0.000030 0.002323 -0.000334 106.381714 71.020905
[null_rope01_connect]
1 328.732483 0.000000 -0.000238 143.517517 -62.091454 -146.345337 328.732483
2 328.732483 0.000000 -0.000238 144.457489 -61.458637 -147.263992 328.732483
[Rope1_Seg01]
1 0.000000 0.000000 0.000000 163.061996 49.119080 -159.002304 0.000000
2 0.000000 0.000000 0.000000 159.448898 47.484776 -160.661102 0.000000
[Rope1_Seg02]
1 139.999863 -0.000179 0.000000 12.419894 -1.702398 -10.481627 139.999863
2 139.999863 -0.000179 0.000000 12.350084 -1.743033 -10.534296 139.999863
[Rope1_Seg03]
1 139.999924 0.000060 -0.000060 24.328020 -5.877945 -13.507906 139.999924
2 139.999924 0.000060 -0.000060 24.143072 -5.896194 -13.589417 139.999924
[Rope1_Seg04]
1 139.999924 -0.000060 -0.000119 32.354214 -15.651264 -13.330009 139.999924
2 139.999924 -0.000060 -0.000119 33.172604 -16.568457 -13.856610 139.999924
[Rope1_Seg05]
1 139.999832 0.000119 -0.000060 1.051063 3.243310 -4.734759 139.999832
2 139.999832 0.000119 -0.000060 2.282379 2.490379 -5.111059 139.999832
[Rope1_Seg06]
1 139.999954 0.000119 -0.000060 -8.482112 7.780947 -3.230784 139.999954
2 139.999954 0.000119 -0.000060 -8.955543 8.744658 -4.028282 139.999954
[Rope1_Seg07]
1 139.999985 0.000060 0.000000 -1.645469 2.059742 -1.363641 139.999985
2 139.999985 0.000060 0.000000 -1.761806 2.302381 -1.587236 139.999985
[Rope1_Seg09]
1 121.602913 0.000119 -0.000089 -89.793175 -1.359789 0.847147 121.602913
2 121.602913 0.000119 -0.000089 -89.793175 -1.359789 0.847147 121.602913
[L_mid_hand01]
1 103.859421 1.038730 8.195221 106.855484 -31.239275 -9.461397 104.187431
2 103.859421 1.038730 8.195221 106.855484 -31.239275 -9.461397 104.187431
[L_mid_hand02]
1 105.572853 -4.139662 -10.864139 -142.331345 25.752670 -28.774628 106.211075
2 105.572853 -4.139662 -10.864139 -142.331345 25.752670 -28.774628 106.211075
[L_mid_hand03]
1 104.641464 17.579376 -3.913581 -16.122810 9.734291 34.223598 106.179977
2 104.641464 17.579376 -3.913581 -16.122810 9.734291 34.223598 106.179977
[null_rope02_connect]
1 328.732849 0.000179 -0.000119 -21.953829 81.770424 157.889526 328.732849
2 328.732849 0.000179 -0.000119 -22.903820 82.085350 156.936035 328.732849
[Rope2_Seg01]
1 0.000076 0.000110 0.000153 21.425316 82.576454 134.521500 0.000203
2 0.000076 0.000110 0.000153 28.749039 81.819328 142.121841 0.000203
[Rope2_Seg02]
1 139.999741 -0.000060 -0.000119 -1.923654 10.202579 4.931746 139.999756
2 139.999741 -0.000060 -0.000119 -1.801031 10.367086 4.726892 139.999756
[Rope2_Seg03]
1 140.000107 0.000030 0.000000 -5.694819 16.613503 9.351408 140.000107
2 140.000107 0.000030 0.000000 -5.526501 16.868948 8.923916 140.000107
[Rope2_Seg04]
1 139.999802 0.000000 -0.000060 -10.206565 16.017422 11.419413 139.999802
2 139.999802 0.000000 -0.000060 -9.986190 16.072401 10.763605 139.999802
[Rope2_Seg05]
1 139.999985 -0.000060 0.000119 1.737231 -0.458554 -2.275787 139.999985
2 139.999985 -0.000060 0.000119 1.684657 -0.595532 -2.114331 139.999985
[Rope2_Seg06]
1 139.999893 -0.000030 -0.000119 -0.236171 0.723591 -0.069071 139.999893
2 139.999893 -0.000030 -0.000119 -0.290124 0.726216 0.002294 139.999893
[Rope2_Seg07]
1 139.999893 0.000060 -0.000060 -0.486326 0.724846 0.260713 139.999893
2 139.999893 0.000060 -0.000060 -0.507932 0.729943 0.283305 139.999893
[Rope2_Seg09]
1 121.338966 0.000089 -0.000060 33.793236 -1.359788 -0.847141 121.338966
2 121.338966 0.000089 -0.000060 33.793236 -1.359788 -0.847141 121.338966
[R_mid_hand01]
1 104.680779 11.144459 -10.335981 -41.523792 25.424656 28.595957 105.778534
2 104.680779 11.144459 -10.335981 -41.523792 25.424656 28.595957 105.778534
[R_mid_hand02]
1 104.070427 2.443552 8.231699 72.847389 -32.746803 10.013901 104.424065
2 104.070427 2.443552 8.231699 72.847389 -32.746803 10.013901 104.424065
[R_mid_hand03]
1 106.028137 -11.221827 -5.996406 -167.901306 10.259192 -37.009720 106.788818
2 106.028137 -11.221827 -5.996406 -167.901306 10.259192 -37.009720 106.788818
[spine02]
1 129.756927 0.001550 0.000119 -0.245322 -4.052060 -4.355547 129.756927
2 129.756927 0.001550 0.000119 -0.245322 -4.052060 -4.355547 129.756927
[spine03]
1 78.613846 0.087372 -4.898873 0.207412 -2.089717 -0.432471 78.766380
2 78.613846 0.087372 -4.898873 0.207412 -2.089717 -0.432471 78.766380
[pelvis]
1 169.435242 0.051022 0.000000 -0.010007 -0.191417 -1.897554 169.435257
2 169.435242 0.051022 0.000000 -0.010007 -0.191417 -1.897554 169.435257
[null_rope03_connect]
1 -1.257226 -2.466202 137.391083 137.764114 -72.549721 -87.551201 137.418976
2 -1.257226 -2.466202 137.391083 137.763367 -72.549530 -87.525024 137.418976
[null_rope04_connect]
1 -1.259640 -2.480268 -137.844437 137.764114 -72.549721 -87.551201 137.872513
2 -1.259640 -2.480268 -137.844437 137.763367 -72.549530 -87.525024 137.872513
[Rope3_Seg01]
1 0.000000 0.000000 0.000000 145.744324 75.381752 -147.439651 0.000000
2 0.000000 0.000000 0.000000 145.225967 74.660759 -148.047623 0.000000
[Rope3_Seg02]
1 139.999924 -0.000119 0.000060 6.873188 11.745420 -2.373910 139.999924
2 139.999924 -0.000119 0.000060 7.261733 12.054104 -2.285583 139.999924
[Rope3_Seg03]
1 139.999924 -0.000119 0.000119 12.993375 18.730907 -4.897262 139.999924
2 139.999924 -0.000119 0.000119 13.687572 19.023302 -4.753014 139.999924
[Rope3_Seg04]
1 139.999924 0.000119 0.000000 16.480478 21.362713 -11.108898 139.999924
2 139.999924 0.000119 0.000000 16.686897 20.676624 -10.900241 139.999924
[Rope3_Seg05]
1 139.999924 -0.000238 0.000060 -3.391187 -11.561926 -5.022863 139.999924
2 139.999924 -0.000238 0.000060 -3.782604 -12.033978 -4.905541 139.999924
[Rope3_Seg06]
1 139.999893 -0.000119 -0.000060 -2.428889 -11.491796 -2.777078 139.999893
2 139.999893 -0.000119 -0.000060 -2.563789 -11.827725 -2.940964 139.999893
[Rope3_Seg07]
1 139.999771 0.000060 -0.000119 0.003211 -4.882733 -2.939206 139.999771
2 139.999771 0.000060 -0.000119 -0.027873 -5.123870 -3.047051 139.999771
[Rope3_Seg08]
1 139.999985 -0.000060 0.000000 0.316624 -3.010924 -1.817491 139.999985
2 139.999985 -0.000060 0.000000 0.309300 -3.160991 -1.883746 139.999985
[Rope3_Seg09]
1 90.185997 -0.000179 -0.000060 89.793228 -1.359877 -0.847183 90.185997
2 90.185997 -0.000179 -0.000060 89.793228 -1.359877 -0.847183 90.185997
[R_rear_hand01]
1 103.366196 -6.073594 -10.757982 -161.551193 16.666374 -30.088671 104.101845
2 103.366196 -6.073594 -10.757982 -161.551193 16.666374 -30.088671 104.101845
[R_rear_hand02]
1 100.509819 12.039542 -7.992327 -34.280552 19.289745 28.875523 101.543350
2 100.509819 12.039542 -7.992327 -34.280552 19.289745 28.875523 101.543350
[R_rear_hand03]
1 101.539970 5.215704 5.435467 83.366440 -30.933914 7.284830 101.819031
2 101.539970 5.215704 5.435467 83.366440 -30.933914 7.284830 101.819031
[Rope4_Seg01]
1 0.000010 0.000038 -0.000114 -9.821680 64.850418 -174.355621 0.000121
2 0.000010 0.000038 -0.000114 -9.835048 65.447289 -174.343491 0.000121
[Rope4_Seg02]
1 139.999985 0.000060 0.000119 1.140992 -4.585241 11.643134 139.999985
2 139.999985 0.000060 0.000119 1.019578 -4.709501 11.440843 139.999985
[Rope4_Seg03]
1 139.999924 0.000000 -0.000238 0.813326 -6.697951 16.904943 139.999924
2 139.999924 0.000000 -0.000238 0.735501 -6.777695 16.318750 139.999924
[Rope4_Seg04]
1 139.999985 0.000000 0.000119 -0.038174 -7.969904 20.166967 139.999985
2 139.999985 0.000000 0.000119 0.034565 -8.155991 19.529943 139.999985
[Rope4_Seg05]
1 139.999802 -0.000060 -0.000119 -0.028803 5.587812 -1.841806 139.999802
2 139.999802 -0.000060 -0.000119 -0.035831 5.141897 -1.386170 139.999802
[Rope4_Seg06]
1 139.999924 0.000000 0.000060 0.220445 9.625090 -9.032119 139.999924
2 139.999924 0.000000 0.000060 0.098303 9.419003 -8.717678 139.999924
[Rope4_Seg07]
1 139.999802 0.000000 0.000000 0.730941 5.319458 -3.386117 139.999802
2 139.999802 0.000000 0.000000 0.651532 5.139801 -3.175133 139.999802
[Rope4_Seg08]
1 139.999924 0.000000 0.000119 -0.822181 3.650713 -2.399906 139.999924
2 139.999924 0.000000 0.000119 -0.889887 3.551346 -2.257714 139.999924
[Rope4_Seg09]
1 90.185791 0.000060 0.000060 -135.617828 2.228885 0.850567 90.185791
2 90.185791 0.000060 0.000060 -135.617828 2.228885 0.850567 90.185791
[L_rear_hand01]
1 101.696655 -8.392275 -7.654577 -34.454281 -18.946800 151.655121 102.329041
2 101.696655 -8.392275 -7.654577 -34.454281 -18.946800 151.655121 102.329041
[L_rear_hand02]
1 102.726799 -1.568258 5.773216 83.407906 30.330435 172.796509 102.900848
2 102.726799 -1.568258 5.773216 83.407906 30.330435 172.796509 102.900848
[L_rear_hand03]
1 104.552910 9.721220 -10.420293 -161.379868 -16.473232 -150.512238 105.519653
2 104.552910 9.721220 -10.420293 -161.379868 -16.473232 -150.512238 105.519653
